<?xml version="1.0" encoding="utf-8"?>
<!-- Generator: Adobe Illustrator 23.0.3, SVG Export Plug-In . SVG Version: 6.00 Build 0)  -->
<svg version="1.1" id="Icons" xmlns="http://www.w3.org/2000/svg" xmlns:xlink="http://www.w3.org/1999/xlink" x="0px" y="0px"
	 viewBox="0 0 32 32" style="enable-background:new 0 0 32 32;" xml:space="preserve">
<style type="text/css">
	.st0{fill:none;stroke:#000000;stroke-width:2;stroke-linecap:round;stroke-linejoin:round;stroke-miterlimit:10;}
</style>
<path d="M25,4c-2.8,0-5,2.2-5,5c0,2.4,1.7,4.4,4,4.9v7.6c0,3.6-2.9,6.5-6.5,6.5S11,25.1,11,21.5v-0.6c3.9-0.5,7-3.9,7-7.9V5
	c0-1.1-0.9-2-2-2h-1c-0.6,0-1-0.4-1-1c0-0.6-0.4-1-1-1s-1,0.4-1,1c0,1.7,1.3,3,3,3h1v8c0,3.3-2.7,6-6,6s-6-2.7-6-6V5h1
	c1.7,0,3-1.3,3-3c0-0.6-0.4-1-1-1S6,1.4,6,2c0,0.6-0.4,1-1,1H4C2.9,3,2,3.9,2,5v8c0,4.1,3.1,7.4,7,7.9v0.6c0,4.7,3.8,8.5,8.5,8.5
	s8.5-3.8,8.5-8.5v-7.6c2.3-0.5,4-2.5,4-4.9C30,6.2,27.8,4,25,4z M25.7,9.7C25.5,9.9,25.3,10,25,10c-0.1,0-0.3,0-0.4-0.1
	c-0.1-0.1-0.2-0.1-0.3-0.2C24.1,9.5,24,9.3,24,9c0-0.3,0.1-0.5,0.3-0.7c0.1-0.1,0.2-0.2,0.3-0.2C25,7.9,25.4,8,25.7,8.3
	C25.9,8.5,26,8.7,26,9C26,9.3,25.9,9.5,25.7,9.7z"/>
</svg>
